HIERARCHY
ROOT Hips
{
  OFFSET 34.8587 103.255 -143.23
  CHANNELS 6 Xposition Yposition Zposition Zrotation Xrotation Yrotation
  JOINT RightUpLeg
  {
    OFFSET -8.9458 -8.66707 0.101652
    CHANNELS 3 Zrotation Xrotation Yrotation
    JOINT RightLeg
    {
      OFFSET 0 -44.4227 1.3727
      CHANNELS 3 Zrotation Xrotation Yrotation
      JOINT RightFoot
      {
        OFFSET 0.253549 -42.0924 -1.46059
        CHANNELS 3 Zrotation Xrotation Yrotation
        JOINT RightToes
        {
          OFFSET 0.04 -4.41509 8.4991
          CHANNELS 3 Zrotation Xrotation Yrotation
          End Site
          {
            OFFSET -0.08 -0.137448 9.77979
          }
        }
      }
    }
  }
  JOINT Spine
  {
    OFFSET 0 11.8905 0
    CHANNELS 3 Zrotation Xrotation Yrotation
    JOINT Spine1
    {
      OFFSET 0 25.6574 0.127663
      CHANNELS 3 Zrotation Xrotation Yrotation
      JOINT HEad
      {
        OFFSET 0 8.73416 0.011341
        CHANNELS 3 Zrotation Xrotation Yrotation
        End Site
        {
          OFFSET -0.29 12.7742 2.51395
        }
      }
      JOINT LeftShoulder1
      {
        OFFSET 8.99 -0.362252 -0.22
        CHANNELS 3 Zrotation Xrotation Yrotation
        JOINT LeftArm
        {
          OFFSET 10.2827 -0.00338 0.322123
          CHANNELS 3 Zrotation Xrotation Yrotation
          JOINT LeftForeArm
          {
            OFFSET 32.7669 0.099144 -1.42434
            CHANNELS 3 Zrotation Xrotation Yrotation
            JOINT LeftHand
            {
              OFFSET 27.5643 0.085362 1.02216
              CHANNELS 3 Zrotation Xrotation Yrotation
              End Site
              {
                OFFSET 16.7443 -0.6 1.50291
              }
            }
          }
        }
      }
      JOINT RightShoulder
      {
        OFFSET -8.99 -0.362252 -0.22
        CHANNELS 3 Zrotation Xrotation Yrotation
        JOINT RightArm
        {
          OFFSET -10.2827 -0.00338 0.322123
          CHANNELS 3 Zrotation Xrotation Yrotation
          JOINT RightForeArm
          {
            OFFSET -32.8971 0.099144 -1.42434
            CHANNELS 3 Zrotation Xrotation Yrotation
            JOINT RightHand
            {
              OFFSET -27.4921 0.085362 1.02216
              CHANNELS 3 Zrotation Xrotation Yrotation
              End Site
              {
                OFFSET -16.6312 -0.6 1.50291
              }
            }
          }
        }
      }
    }
  }
  JOINT LeftUpLeg
  {
    OFFSET 8.9458 -8.66707 0.101652
    CHANNELS 3 Zrotation Xrotation Yrotation
    JOINT LeftLeg
    {
      OFFSET 0 -44.4227 1.3727
      CHANNELS 3 Zrotation Xrotation Yrotation
      JOINT LeftFoot
      {
        OFFSET -0.253549 -42.0924 -1.46059
        CHANNELS 3 Zrotation Xrotation Yrotation
        JOINT LeftToes
        {
          OFFSET -0.04 -4.41509 8.4991
          CHANNELS 3 Zrotation Xrotation Yrotation
          End Site
          {
            OFFSET 0.08 -0.047448 9.77979
          }
        }
      }
    }
  }
}
MOTION
Frames:	19
Frame Time:	0.0166667
20.7513 99.8955 -9.23812 2.59435 2.78978 6.54713 0.264735 -21.8996 6.61878 -3.0984 6.16247 -9.57265 1.55905 -10.9281 -0.0701419 0.0462048 0.000533964 0.662642 -4.65173 3.42249 1.43668 6.1332 -7.5262 0.929964 -7.73998 -20.6543 1.60186 -1.14301e-015 3.97569e-016 1.59028e-015 -87.3021 -21.0179 -9.95447 -24.5869 15.5449 -18.8427 0.368473 9.90896 -0.00117926 2.66019 -0.103994 -4.47133 56.4276 -52.9071 -21.9287 12.7648 15.0711 22.8924 -0.369625 9.91382 0.00119886 -11.5655 4.5382 5.12949 11.3872 24.0897 -8.88092 1.41187 -24.8882 0.322574 0.757646 -10.015 3.82215 
20.6732 99.8086 -7.20356 2.77494 2.74023 6.98653 0.0364939 -20.6775 6.59624 -3.24318 4.0397 -11.2424 1.49725 -10.437 -0.0825228 0.0462048 0.000533964 0.662642 -4.83835 3.4206 1.41356 5.94342 -8.06072 0.95972 -8.08134 -20.3793 1.05006 -2.48481e-016 0 1.59028e-015 -87.4654 -21.3129 -9.7802 -24.5559 15.4364 -18.3477 0.368473 9.90896 -0.00117926 2.56906 -0.104751 -4.48152 55.7117 -53.0778 -23.0551 12.731 15.0531 22.6987 -0.369625 9.91382 0.00119886 -11.6354 5.07213 6.11403 12.5349 25.1999 -10.0615 0.499236 -24.456 0.149751 0.178783 -8.99183 1.73904 
20.5678 99.7617 -5.11304 2.93372 2.67507 7.30774 -0.00638038 -19.6004 5.93432 -3.3576 3.58538 -11.5459 1.53437 -8.2975 -0.105558 0.0462048 0.000533964 0.662642 -4.95773 3.47538 1.44599 5.76824 -8.55194 0.983998 -8.5534 -19.906 0.526223 9.93923e-017 0 -1.59028e-015 -87.5226 -21.7477 -9.47524 -24.5913 15.3169 -17.8007 0.368473 9.90896 -0.00117926 2.35779 -0.081631 -4.27956 55.0555 -53.1691 -24.3235 12.7624 15.0588 22.5962 -0.369625 9.91382 0.00119886 -11.6795 5.50215 7.31527 13.9628 26.3827 -11.5336 -0.652084 -23.7999 -0.0608224 -0.22467 -7.11516 -0.0104219 
20.4233 99.8048 -2.99673 2.96256 2.49812 7.51508 0.260082 -18.4762 5.2539 -3.46116 3.91972 -11.3567 1.69172 -6.00053 -0.126398 0.0462048 0.000533964 0.662642 -4.97343 3.52536 1.54155 5.76663 -8.78965 1.00235 -9.02516 -19.5011 0.114381 -1.09332e-015 7.95139e-016 -0 -87.5214 -22.3055 -9.01669 -24.6696 15.2453 -17.4823 0.368473 9.90896 -0.00117926 2.06168 -0.0436336 -3.9287 54.62 -53.1934 -25.4025 12.8203 15.0742 22.5433 -0.369625 9.91382 0.00119886 -11.3857 5.78435 8.59501 15.3052 27.8457 -13.0254 -1.90599 -22.709 -0.266563 -0.753235 -4.75349 -2.44386 
20.2156 100.037 -0.885285 2.66372 2.07184 7.55525 1.11514 -17.0705 5.05406 -3.83651 4.22566 -10.9497 2.07829 -4.69019 -0.13708 0.0462048 0.000533964 0.662642 -4.74775 3.49978 1.73389 6.18232 -8.45272 1.0133 -9.40191 -19.4593 -0.0698609 3.47873e-016 7.95139e-016 -0 -87.4743 -23.0016 -8.32544 -24.8049 15.3084 -17.7974 0.368473 9.90896 -0.00117926 1.71803 0.00922808 -3.40281 54.5283 -53.1692 -25.9847 12.8756 15.0874 22.5118 -0.369625 9.91382 0.00119886 -10.277 5.98088 9.80684 16.0434 29.7196 -14.1733 -3.13816 -21.0077 -0.440606 -1.52346 -2.36341 -6.6076 
19.9727 100.321 1.23195 2.29572 1.54606 7.51838 2.07911 -15.6052 5.19135 -4.11926 4.80001 -10.6445 2.3849 -4.10739 -0.139448 0.0462048 0.000533964 0.662642 -4.5413 3.46456 1.95624 6.69127 -7.89184 1.0147 -9.66452 -19.6005 -0.135808 5.46658e-016 3.97569e-016 1.59028e-015 -87.3662 -23.7387 -7.53126 -24.9235 15.4127 -18.3055 0.368473 9.90896 -0.00117926 1.36633 0.0594992 -2.88702 54.8778 -53.101 -26.0507 12.9256 15.0975 22.4809 -0.369625 9.91382 0.00119886 -8.82945 5.77695 11.0178 16.6903 32.1909 -15.4087 -4.36689 -18.5708 -0.546317 -2.29492 0.708987 -11.7102 
19.7161 100.54 3.38605 2.10649 1.01308 7.45085 2.67836 -14.2662 5.84745 -3.90858 5.83065 -11.0827 2.21418 -4.57092 -0.130585 0.0462048 0.000533964 0.662642 -4.65032 3.47404 2.14518 7.01924 -7.36268 1.00267 -9.73714 -19.8741 -0.110635 -2.48481e-016 -3.97569e-016 -0 -87.1686 -24.4273 -6.68143 -24.9676 15.5069 -18.7465 0.368473 9.90896 -0.00117926 1.08614 0.0878019 -2.57009 55.8019 -52.9698 -25.5062 12.9939 15.1216 22.5421 -0.369625 9.91382 0.00119886 -7.3352 4.86468 12.3386 17.7704 35.5485 -17.0485 -5.5849 -15.0908 -0.544839 -3.05169 4.87997 -18.4126 
19.4403 100.733 5.48515 1.93351 0.508308 7.42899 3.1509 -12.9187 6.5397 -3.52185 6.81415 -11.5855 1.94318 -5.49129 -0.116607 0.0462048 0.000533964 0.662642 -4.83258 3.49232 2.32453 7.26258 -6.82914 0.981 -9.67649 -20.1834 -0.11877 2.5345e-015 3.97569e-016 -0 -86.9761 -25.061 -5.95753 -24.9102 15.5567 -18.9833 0.368473 9.90896 -0.00117926 0.799158 0.0996202 -2.41497 57.281 -52.8236 -24.2903 12.9729 15.0937 22.3296 -0.369625 9.91382 0.00119886 -5.75542 3.31108 13.495 19.1895 39.4884 -19.4244 -6.80081 -10.9391 -0.437054 -2.52892 9.86605 -23.7616 
19.1315 100.892 7.42851 1.66397 0.0737682 7.59734 3.66741 -11.4405 6.79182 -3.19348 7.27195 -11.5125 1.86581 -6.34088 -0.102689 0.0462048 0.000533964 0.662642 -4.92332 3.50104 2.51161 7.42914 -6.31322 0.948567 -9.49764 -20.396 -0.37143 3.47873e-016 -3.97569e-016 -0 -86.9487 -25.587 -5.66398 -24.639 15.4893 -18.6977 0.368473 9.90896 -0.00117926 0.400198 0.0869794 -2.52277 59.5436 -52.7179 -22.075 12.665 14.8917 21.1993 -0.369625 9.91382 0.00119886 -4.14334 0.943389 14.3807 21.4651 43.8348 -23.809 -8.37943 -6.1476 -0.160481 -0.321567 17.6708 -23.7988 
18.8367 101.039 9.27387 1.40973 -0.216357 7.79613 4.12888 -9.978 6.81347 -2.92349 7.34988 -11.3536 1.8335 -7.25282 -0.088742 0.0462048 0.000533964 0.662642 -4.98528 3.50191 2.66249 7.50953 -5.89643 0.91608 -9.25881 -20.5676 -0.638519 -1.98785e-016 0 -4.77083e-015 -86.908 -26.0659 -5.49976 -24.353 15.3698 -18.1718 0.368473 9.90896 -0.00117926 0.048031 0.0709667 -2.66773 61.9585 -52.5213 -19.5665 12.3406 14.6778 20.0826 -0.369625 9.91382 0.00119886 -2.65604 -1.84761 14.6597 24.1723 48.1204 -28.3725 -9.30162 -1.42703 0.139893 1.15335 24.1841 -21.9694 
18.6011 101.192 11.0345 1.21167 -0.21871 7.93589 4.51394 -8.68317 6.5737 -2.79831 6.96002 -11.4998 1.76674 -8.26278 -0.0771317 0.0462048 0.000533964 0.662642 -5.01965 3.47995 2.73121 7.50999 -5.72971 0.900439 -9.02686 -20.6806 -0.773179 -1.04362e-015 1.98785e-016 -0 -86.6985 -26.5129 -5.25521 -24.2254 15.2414 -17.5854 0.368473 9.90896 -0.00117926 -0.0818134 0.0692075 -2.678 63.8215 -52.1704 -17.5312 12.2901 14.6375 19.8988 -0.369625 9.91382 0.00119886 -1.61723 -4.82479 13.6311 25.4506 52.5181 -30.4681 -7.98142 2.88201 0.350819 0.884222 23.4338 -19.9653 
18.4167 101.351 12.743 1.15244 -0.101113 7.94997 4.74199 -7.41346 6.30396 -2.74978 6.31645 -11.6217 1.75164 -9.13538 -0.0656987 0.0462048 0.000533964 0.662642 -5.04621 3.46701 2.74111 7.38922 -5.62692 0.88159 -8.78072 -20.8267 -0.733326 2.48481e-016 1.98785e-016 -3.18055e-015 -86.3666 -27.0045 -4.9423 -24.2206 15.0977 -16.9265 0.368473 9.90896 -0.00117926 -0.144393 0.0840964 -2.49297 65.5784 -51.7092 -15.4985 12.3368 14.6559 20.021 -0.369625 9.91382 0.00119886 -1.08591 -7.8319 12.2105 26.1346 56.693 -31.0162 -6.26409 5.63561 0.469708 0.343398 20.5628 -17.7602 
18.2965 101.527 14.4454 1.36857 0.0306929 7.70019 4.65178 -6.04561 6.3533 -2.70865 5.53637 -11.4821 1.8722 -9.48839 -0.0539416 0.0462048 0.000533964 0.662642 -5.09813 3.49706 2.69845 7.08688 -5.47658 0.845228 -8.4918 -21.1047 -0.368955 6.95746e-016 7.95139e-016 1.59028e-015 -85.8376 -27.6103 -4.45084 -24.4326 14.9468 -16.2424 0.368473 9.90896 -0.00117926 -0.197804 0.130844 -1.93427 67.353 -51.1078 -13.257 12.4154 14.6722 20.0887 -0.369625 9.91382 0.00119886 -1.03805 -10.5621 11.0441 26.6103 60.1706 -29.4232 -5.76948 4.91352 0.414644 0.185569 19.467 -16.0069 
18.2218 101.703 16.1153 1.74967 0.135247 7.31224 4.37471 -4.68523 6.32818 -2.73206 4.81622 -11.1986 2.05466 -9.79805 -0.039281 0.0462048 0.000533964 0.662642 -5.13652 3.54868 2.60857 6.66807 -5.20557 0.791346 -8.24042 -21.4725 0.146288 8.19987e-016 -5.96354e-016 -1.59028e-015 -85.2985 -28.3651 -3.92879 -24.6502 14.7911 -15.5343 0.368473 9.90896 -0.00117926 -0.360224 0.188698 -1.18336 69.363 -50.4462 -10.8182 12.4583 14.6881 20.2273 -0.369625 9.91382 0.00119886 -1.36516 -13.0644 10.2064 26.4652 62.7738 -26.9471 -5.58279 2.70517 0.289013 0.0937718 18.6287 -14.1939 
18.1723 101.872 17.736 2.27736 0.111545 6.85536 3.98302 -3.41796 5.72605 -2.91096 4.48104 -10.6947 2.26904 -10.5114 -0.016564 0.0462048 0.000533964 0.662642 -5.1707 3.60897 2.47169 6.12853 -4.64399 0.707457 -8.11764 -21.948 0.681173 3.85145e-016 9.93923e-017 -3.18055e-015 -84.9397 -29.3749 -3.51917 -24.6509 14.6317 -14.7955 0.368473 9.90896 -0.00117926 -0.759814 0.2466 -0.334505 71.9713 -49.8187 -8.02776 12.3428 14.6766 20.434 -0.369625 9.91382 0.00119886 -1.93193 -15.266 10.1289 26.7072 64.1105 -26.0914 -5.27766 0.484289 0.176576 0.0780649 17.8823 -11.8854 
18.1652 102.011 19.3251 2.801 0.030977 6.36035 3.60628 -2.16726 5.23074 -3.10202 4.26722 -10.3039 2.47004 -11.3339 0.00727083 0.0462048 0.000533964 0.662642 -5.08879 3.6863 2.30941 5.61938 -3.97065 0.617139 -8.0678 -22.4518 1.25695 -7.4156e-016 9.31803e-017 -0 -84.6907 -30.5006 -3.13436 -24.5644 14.4818 -14.096 0.368473 9.90896 -0.00117926 -1.42144 0.290475 0.529027 74.9193 -49.123 -5.12357 12.1691 14.6625 20.7325 -0.369625 9.91382 0.00119886 -2.57907 -17.2104 10.4565 27.0206 64.4282 -25.7805 -5.0334 -2.12229 0.0554261 0.0672662 16.9518 -9.63179 
18.2201 102.089 20.8899 3.14076 -0.10279 5.85327 3.34756 -0.84057 5.6618 -3.14521 4.00642 -10.5118 2.5904 -12.1013 0.0258709 0.0462048 0.000533964 0.662642 -4.73359 3.79851 2.14421 5.3376 -3.25711 0.538929 -8.0669 -22.9607 1.88034 -9.93923e-017 -9.93923e-017 -1.59028e-015 -84.605 -31.6837 -2.74159 -24.4393 14.36 -13.5178 0.368473 9.90896 -0.00117926 -2.55936 0.295338 1.30807 78.2885 -48.3245 -2.19257 11.9492 14.6465 21.1086 -0.369625 9.91382 0.00119886 -3.15091 -18.874 11.0604 27.2416 63.7797 -25.7558 -4.94636 -5.12635 -0.0771511 -0.0105814 15.4091 -8.02535 
18.3089 102.118 22.4436 3.37046 -0.186912 5.41761 3.1559 0.405406 6.10127 -3.19315 3.74196 -10.7891 2.66399 -12.8699 0.0422936 0.0462048 0.000533964 0.662642 -4.25035 3.90435 1.97369 5.13542 -2.6554 0.474669 -8.12723 -23.3249 2.45771 1.49089e-016 0 -0 -84.5031 -32.7852 -2.31831 -24.3026 14.2557 -13.017 0.368473 9.90896 -0.00117926 -3.72743 0.283022 1.95598 81.4192 -47.3933 0.45709 11.8234 14.6722 21.6729 -0.369625 9.91382 0.00119886 -3.70916 -20.4111 11.6664 27.053 62.3441 -25.4224 -4.83276 -8.13812 -0.197841 -0.0805003 13.618 -6.54372 
18.4116 102.099 24.001 3.50261 -0.0893999 5.18715 3.11073 1.4185 5.70631 -3.37179 3.43718 -10.7299 2.73593 -13.674 0.0619485 0.0462048 0.000533964 0.662642 -3.72918 3.95573 1.79566 4.90752 -2.3831 0.434733 -8.30308 -23.3143 2.85423 5.2181e-016 -1.98785e-016 -2.38542e-015 -84.1764 -33.5868 -1.80459 -24.2049 14.1675 -12.5996 0.368473 9.90896 -0.00117926 -4.48113 0.266004 2.34484 83.5807 -46.286 2.41604 11.987 14.7963 22.5939 -0.369625 9.91382 0.00119886 -4.33522 -22.0381 11.9218 26.2857 60.2845 -24.2786 -4.46648 -10.7963 -0.280123 -0.0952795 11.6525 -4.80498 
